<?xml version="1.0" encoding="UTF-8"?>
<!DOCTYPE svg PUBLIC "-//W3C//DTD SVG 1.0//EN" "http://www.w3.org/TR/2001/REC-SVG-20010904/DTD/svg10.dtd">
<!-- Creator: CorelDRAW X7 -->
<svg xmlns="http://www.w3.org/2000/svg" xml:space="preserve" width="1024px" height="1024px" version="1.0" style="shape-rendering:geometricPrecision; text-rendering:geometricPrecision; image-rendering:optimizeQuality; fill-rule:evenodd; clip-rule:evenodd"
viewBox="0 0 178 178"
 xmlns:xlink="http://www.w3.org/1999/xlink">
 <defs>
  <style type="text/css">
   <![CDATA[
    .fil0 {fill:lime}
   ]]>
  </style>
 </defs>
 <g id="Layer_x0020_1">
  <metadata id="CorelCorpID_0Corel-Layer"/>
  <path class="fil0" d="M50 69l-47 -47 19 -19 47 47 0 19 -19 0zm39 6c8,0 15,6 15,14 0,8 -7,15 -15,15 -8,0 -14,-7 -14,-15 0,-8 6,-14 14,-14zm-47 -62c29,-17 65,-17 94,0l-18 18c-18,-8 -39,-8 -57,0l-19 -18zm123 29c18,29 18,65 0,94l-18 -18c9,-18 9,-39 0,-57l8 -8 0 0 6 -6 4 -5zm-29 123c-29,18 -65,18 -94,0l19 -18c18,9 39,9 57,0l18 18zm-123 -29c-17,-29 -17,-65 0,-94l5 5 0 0 6 6 0 0 7 8c-8,18 -8,39 0,57l-18 18zm116 -26l46 46 -19 19 -46 -46 0 -19 19 0zm-107 65l-19 -19 14 -14 5 -4 0 0 6 -6 7 -8 15 -14 19 0 0 19 -47 46zm116 -153l0 0 4 -5 14 -14 19 19 -46 47 -19 0 0 -19 14 -15 8 -7 6 -6z"/>
 </g>
</svg>
