<svg xmlns="http://www.w3.org/2000/svg" width="69.307" height="76.986" viewBox="0 0 69.307 76.986"><defs><style>.a{fill:#343cff;}</style></defs><g transform="translate(-5.996 -4)"><path class="a" d="M63.011,13.508a2.063,2.063,0,0,1-.885-.212,44.016,44.016,0,0,0-21.44-5.447,44.25,44.25,0,0,0-21.44,5.427A1.929,1.929,0,0,1,17.4,9.889,48.906,48.906,0,0,1,63.9,9.87a1.926,1.926,0,0,1-.885,3.638ZM7.928,33.716a2.006,2.006,0,0,1-1.116-.346,1.916,1.916,0,0,1-.462-2.675A40.09,40.09,0,0,1,20.8,18.088a44.413,44.413,0,0,1,39.705-.038A40.268,40.268,0,0,1,74.944,30.56a1.913,1.913,0,0,1-.443,2.675,1.936,1.936,0,0,1-2.694-.443A36.136,36.136,0,0,0,58.758,21.476a40.5,40.5,0,0,0-36.183.038A36.145,36.145,0,0,0,9.506,32.927a1.959,1.959,0,0,1-1.578.789ZM32.005,80.158a1.91,1.91,0,0,1-1.366-.577A40.335,40.335,0,0,1,22.9,69.438a34.254,34.254,0,0,1-4.061-16.725c0-11.432,9.777-20.748,21.806-20.748s21.806,9.3,21.806,20.748a1.925,1.925,0,0,1-3.849,0c0-9.315-8.045-16.9-17.957-16.9-9.893,0-17.957,7.583-17.957,16.9A30.489,30.489,0,0,0,26.25,67.552a36.49,36.49,0,0,0,7.1,9.315,1.9,1.9,0,0,1-.019,2.714,1.726,1.726,0,0,1-1.328.577Zm27.58-7.121A20.907,20.907,0,0,1,47.652,69.63a20.524,20.524,0,0,1-9.142-16.9,1.925,1.925,0,1,1,3.849,0A16.654,16.654,0,0,0,59.585,69.187a25.263,25.263,0,0,0,4.022-.366,1.925,1.925,0,0,1,.674,3.792,27.562,27.562,0,0,1-4.7.423Zm-7.756,7.949a1.435,1.435,0,0,1-.5-.077,29.4,29.4,0,0,1-14.3-8.083,28.18,28.18,0,0,1-8.334-20.093A11.611,11.611,0,0,1,40.551,41.4,11.611,11.611,0,0,1,52.406,52.732a8.025,8.025,0,0,0,16.013,0c0-14.512-12.51-26.31-27.888-26.31-10.951,0-20.94,6.082-25.444,15.513a24.726,24.726,0,0,0-2.252,10.8A38.4,38.4,0,0,0,15.4,66.608a1.93,1.93,0,1,1-3.618,1.347,42.858,42.858,0,0,1-2.81-15.224A28.5,28.5,0,0,1,11.6,40.279C16.743,29.54,28.1,22.592,40.512,22.592c17.495,0,31.737,13.53,31.737,30.159a11.868,11.868,0,0,1-23.712,0,7.78,7.78,0,0,0-8.006-7.487,7.767,7.767,0,0,0-8.006,7.487,24.352,24.352,0,0,0,7.2,17.36,25.967,25.967,0,0,0,12.606,7.1,1.92,1.92,0,0,1-.5,3.772Z" transform="translate(0 0)"/></g></svg>