<svg id="Layer_2" data-name="Layer 2" xmlns="http://www.w3.org/2000/svg" viewBox="0 0 445.87 103.3"><defs><style>.cls-1,.cls-2{fill:#003993;}.cls-2{font-size:15.1px;font-family:Arial-ItalicMT, Arial;font-style:italic;}.cls-3{letter-spacing:-0.09em;}.cls-4{letter-spacing:-0.02em;}.cls-5{letter-spacing:-0.06em;}.cls-6{letter-spacing:-0.04em;}.cls-7{letter-spacing:-0.07em;}</style></defs><path class="cls-1" d="M73.89,277.83v11.8a39.69,39.69,0,0,1-37.39-37.4H48.3A27.93,27.93,0,0,0,73.89,277.83Z" transform="translate(-25.52 -199.39)"/><path class="cls-1" d="M78.36,252.23v25.6c-.73.06-1.48.08-2.23.08s-1.5,0-2.24-.08v-25.6Z" transform="translate(-25.52 -199.39)"/><path class="cls-1" d="M115.76,252.23a39.7,39.7,0,0,1-37.4,37.4v-11.8a27.93,27.93,0,0,0,25.6-25.6Z" transform="translate(-25.52 -199.39)"/><path class="cls-1" d="M73.89,210.37v37.4H36.5A39.69,39.69,0,0,1,73.89,210.37Z" transform="translate(-25.52 -199.39)"/><path class="cls-1" d="M115.76,247.77H78.36v-37.4A39.7,39.7,0,0,1,115.76,247.77Z" transform="translate(-25.52 -199.39)"/><path class="cls-1" d="M78.36,252.23v25.6c-.73.06-1.48.08-2.23.08s-1.5,0-2.24-.08v-25.6Z" transform="translate(-25.52 -199.39)"/><path class="cls-1" d="M78.36,199.39v11c-.74,0-1.48-.06-2.23-.06s-1.5,0-2.24.06v-11Z" transform="translate(-25.52 -199.39)"/><path class="cls-1" d="M78.36,252.23v25.6c-.73.06-1.48.08-2.23.08s-1.5,0-2.24-.08v-25.6Z" transform="translate(-25.52 -199.39)"/><path class="cls-1" d="M76.13,289.69c.75,0,1.49,0,2.23-.06v11H73.89v-11C74.63,289.67,75.38,289.69,76.13,289.69Z" transform="translate(-25.52 -199.39)"/><path class="cls-1" d="M36.43,250c0,.75,0,1.49.07,2.23h-11v-4.46h11C36.46,248.51,36.43,249.25,36.43,250Z" transform="translate(-25.52 -199.39)"/><path class="cls-1" d="M126.74,247.77v4.46h-11c0-.74.06-1.48.06-2.23s0-1.49-.06-2.23Z" transform="translate(-25.52 -199.39)"/><path class="cls-1" d="M157.44,271.9H145.36l12.28-58.68H181.5a27.5,27.5,0,0,1,10.07,1.5,12.16,12.16,0,0,1,5.86,5,15.33,15.33,0,0,1,2.16,8.27,22.62,22.62,0,0,1-1.72,8.65,20.21,20.21,0,0,1-4.22,6.72,18,18,0,0,1-5.38,3.82,29.27,29.27,0,0,1-7.77,2,93.23,93.23,0,0,1-10.65.4h-7.72Zm6.69-32.1h3.72q9.57,0,12.77-1.2a10.37,10.37,0,0,0,5-3.84,10,10,0,0,0,1.85-5.81,6,6,0,0,0-.95-3.48,5.23,5.23,0,0,0-2.64-2c-1.13-.42-3.66-.62-7.58-.62h-8.65Z" transform="translate(-25.52 -199.39)"/><path class="cls-1" d="M225.61,271.9H213.52L223.77,223H206.56l2-9.81h46.23l-2,9.81h-17Z" transform="translate(-25.52 -199.39)"/><path class="cls-1" d="M246.63,260.81H258l-2.32,11.09H244.3Z" transform="translate(-25.52 -199.39)"/><path class="cls-1" d="M317.64,271.9H305.59l4.76-22.85-16.17-35.83H307l7.28,16.57q2.61,6,3.49,8.61,1.47-2.61,3.44-5.53l5.56-7.76,8.29-11.89h14l-26.9,36.95Z" transform="translate(-25.52 -199.39)"/><path class="cls-1" d="M354.86,271.9H342.77l12.29-58.68h23.86a27.5,27.5,0,0,1,10.07,1.5,12.21,12.21,0,0,1,5.86,5A15.33,15.33,0,0,1,397,228a22.62,22.62,0,0,1-1.72,8.65,20.54,20.54,0,0,1-4.22,6.72,18,18,0,0,1-5.39,3.82,29.18,29.18,0,0,1-7.76,2,93.48,93.48,0,0,1-10.65.4h-7.72Zm6.69-32.1h3.72q9.57,0,12.77-1.2a10.47,10.47,0,0,0,5-3.84,10,10,0,0,0,1.84-5.81,6,6,0,0,0-.94-3.48,5.31,5.31,0,0,0-2.64-2c-1.13-.42-3.66-.62-7.58-.62h-8.65Z" transform="translate(-25.52 -199.39)"/><path class="cls-1" d="M423,271.9H410.94L421.19,223H404l2-9.81h46.23l-2,9.81h-17Z" transform="translate(-25.52 -199.39)"/><path class="cls-1" d="M447.05,271.9l12.28-58.68h12.05L459.13,271.9Z" transform="translate(-25.52 -199.39)"/><text class="cls-2" transform="translate(116.84 98.39)">P<tspan class="cls-3" x="10.07" y="0">T</tspan><tspan x="17.91" y="0">.</tspan><tspan class="cls-4" x="22.11" y="0"> </tspan><tspan x="26.03" y="0">YOG</tspan><tspan class="cls-5" x="59.6" y="0">Y</tspan><tspan class="cls-6" x="68.84" y="0">A</tspan><tspan x="78.36" y="0" xml:space="preserve"> PRESISI TEKNIK</tspan><tspan class="cls-7" x="200.9" y="0">AT</tspan><tspan x="217.96" y="0">AM</tspan><tspan class="cls-6" x="240.61" y="0">A</tspan><tspan x="250.13" y="0" xml:space="preserve"> INDUSTRI</tspan></text></svg>