<svg id="Layer_2" data-name="Layer 2" xmlns="http://www.w3.org/2000/svg" viewBox="0 0 397.71 384.03"><defs><style>.cls-1{fill:#003993;}</style></defs><path class="cls-1" d="M241.47,273.24v32.39A109,109,0,0,1,138.84,203h32.39A76.63,76.63,0,0,0,241.47,273.24Z" transform="translate(-51.15 -57.98)"/><path class="cls-1" d="M253.73,203v70.24c-2,.16-4.07.24-6.13.24s-4.11-.08-6.13-.24V203Z" transform="translate(-51.15 -57.98)"/><path class="cls-1" d="M356.35,203A108.94,108.94,0,0,1,253.73,305.63V273.24A76.63,76.63,0,0,0,324,203Z" transform="translate(-51.15 -57.98)"/><path class="cls-1" d="M241.47,88.12V190.75H138.84A109,109,0,0,1,241.47,88.12Z" transform="translate(-51.15 -57.98)"/><path class="cls-1" d="M356.35,190.75H253.73V88.12A108.93,108.93,0,0,1,356.35,190.75Z" transform="translate(-51.15 -57.98)"/><path class="cls-1" d="M253.73,203v70.24c-2,.16-4.07.24-6.13.24s-4.11-.08-6.13-.24V203Z" transform="translate(-51.15 -57.98)"/><path class="cls-1" d="M253.73,58V88.12q-3-.16-6.13-.17t-6.13.17V58Z" transform="translate(-51.15 -57.98)"/><path class="cls-1" d="M253.73,203v70.24c-2,.16-4.07.24-6.13.24s-4.11-.08-6.13-.24V203Z" transform="translate(-51.15 -57.98)"/><path class="cls-1" d="M247.6,305.8q3.09,0,6.13-.17v30.14H241.47V305.63Q244.52,305.8,247.6,305.8Z" transform="translate(-51.15 -57.98)"/><path class="cls-1" d="M138.67,196.88q0,3.08.17,6.12H108.71V190.75h30.13Q138.67,193.8,138.67,196.88Z" transform="translate(-51.15 -57.98)"/><path class="cls-1" d="M386.49,190.75V203H356.35q.16-3,.17-6.12t-.17-6.13Z" transform="translate(-51.15 -57.98)"/><path class="cls-1" d="M65.89,442H51.15l15-71.59h29.1q7.77,0,12.28,1.83a14.82,14.82,0,0,1,7.15,6.06,18.65,18.65,0,0,1,2.64,10.08,27.58,27.58,0,0,1-2.1,10.55,24.9,24.9,0,0,1-5.15,8.2,22.25,22.25,0,0,1-6.57,4.67A35.62,35.62,0,0,1,94,414.23a110.65,110.65,0,0,1-13,.49H71.61Zm8.16-39.16h4.54q11.67,0,15.58-1.47a12.78,12.78,0,0,0,6.15-4.69,12.15,12.15,0,0,0,2.24-7.08,7.32,7.32,0,0,0-1.14-4.24A6.47,6.47,0,0,0,98.19,383q-2.07-.76-9.25-.76H78.39Z" transform="translate(-51.15 -57.98)"/><path class="cls-1" d="M149.05,442H134.3l12.5-59.62h-21l2.49-12h56.39l-2.49,12H161.5Z" transform="translate(-51.15 -57.98)"/><path class="cls-1" d="M174.68,428.49h13.87L185.72,442H171.85Z" transform="translate(-51.15 -57.98)"/><path class="cls-1" d="M261.3,442H246.61l5.81-27.89-19.73-43.7h15.67l8.89,20.22q3.18,7.28,4.25,10.5c1.2-2.12,2.6-4.36,4.2-6.74l6.79-9.47,10.1-14.51h17.09L266.87,415.5Z" transform="translate(-51.15 -57.98)"/><path class="cls-1" d="M306.71,442H292l15-71.59h29.1q7.77,0,12.28,1.83a14.82,14.82,0,0,1,7.15,6.06,18.65,18.65,0,0,1,2.64,10.08A27.58,27.58,0,0,1,356,399a24.9,24.9,0,0,1-5.15,8.2,22.12,22.12,0,0,1-6.57,4.67,35.62,35.62,0,0,1-9.47,2.41,110.65,110.65,0,0,1-13,.49h-9.42Zm8.16-39.16h4.54q11.67,0,15.58-1.47a12.78,12.78,0,0,0,6.15-4.69,12.15,12.15,0,0,0,2.24-7.08,7.32,7.32,0,0,0-1.14-4.24A6.47,6.47,0,0,0,339,383q-2.07-.76-9.25-.76H319.21Z" transform="translate(-51.15 -57.98)"/><path class="cls-1" d="M389.87,442H375.12l12.5-59.62h-21l2.49-12h56.39l-2.49,12h-20.7Z" transform="translate(-51.15 -57.98)"/><path class="cls-1" d="M419.17,442l15-71.59h14.69L433.91,442Z" transform="translate(-51.15 -57.98)"/></svg>