<svg xmlns="http://www.w3.org/2000/svg" width="34" height="34" viewBox="0 0 34 34"><defs><style>.a{opacity:0.5;}.b{fill:#343cff;}</style></defs><g class="a" transform="translate(0 -8)"><path class="b" d="M17,8A17,17,0,1,0,34,25,17,17,0,0,0,17,8Zm0,6.581a6.032,6.032,0,1,1-6.032,6.032A6.032,6.032,0,0,1,17,14.581Zm0,23.581A13.136,13.136,0,0,1,6.958,33.486a7.643,7.643,0,0,1,6.752-4.1,1.677,1.677,0,0,1,.487.075,9.076,9.076,0,0,0,2.8.473,9.041,9.041,0,0,0,2.8-.473,1.677,1.677,0,0,1,.487-.075,7.643,7.643,0,0,1,6.752,4.1A13.136,13.136,0,0,1,17,38.161Z"/></g></svg>